<?xml version="1.0" encoding="UTF-8"?>
<svg version="1.1" xmlns="http://www.w3.org/2000/svg" width="200" height="200">
<path d="M0 0 C3.19889902 0.09476048 6.38451922 0.08221153 9.58447266 0.05566406 C11.62491643 0.07796662 13.66530433 0.10640359 15.70556641 0.14160156 C17.13076096 0.13613312 17.13076096 0.13613312 18.58474731 0.1305542 C25.04572226 0.40589781 25.04572226 0.40589781 27.96958923 3.07865906 C29.51356675 5.1058049 30.81823418 7.12889243 32.07275391 9.34472656 C32.67189606 10.31136482 32.67189606 10.31136482 33.28314209 11.29753113 C34.37239418 13.05712827 35.38483 14.84573048 36.38525391 16.65722656 C36.76206299 17.33672363 37.13887207 18.0162207 37.52709961 18.71630859 C61.40659067 62.39890773 61.40659067 62.39890773 57.19775391 80.71972656 C54.41949977 88.14043134 48.65120137 91.84464085 41.69775391 95.09472656 C17.12784822 104.33130401 -13.91904376 103.25079561 -38.19287109 93.72363281 C-45.17196471 90.20417561 -48.35085024 85.56915086 -50.92724609 78.34472656 C-54.73714403 60.57536258 -40.27511906 36.42236095 -32.36474609 21.28222656 C-31.87409668 20.33863281 -31.87409668 20.33863281 -31.37353516 19.37597656 C-30.68216484 18.09324128 -29.9541478 16.82976129 -29.19580078 15.58544922 C-27.81052325 13.25613363 -27.81052325 13.25613363 -26.68212891 10.22509766 C-21.0347956 -1.51266741 -11.58805533 -0.36821524 0 0 Z M2.07275391 22.34472656 C0.7764177 23.41117771 0.7764177 23.41117771 1.01025391 25.90722656 C1.03087891 26.71160156 1.05150391 27.51597656 1.07275391 28.34472656 C0.00025391 28.57160156 -1.07224609 28.79847656 -2.17724609 29.03222656 C-6.39908261 30.50986934 -7.67886069 31.53976664 -9.92724609 35.34472656 C-11.11297318 39.06000477 -11.12894308 40.78445717 -9.80224609 44.46972656 C-7.15818043 48.52396057 -4.52471629 50.8122365 0.07275391 52.34472656 C0.40275391 56.96472656 0.73275391 61.58472656 1.07275391 66.34472656 C-3.95278114 63.32940554 -4.78613604 62.41577669 -6.92724609 57.34472656 C-7.91724609 57.34472656 -8.90724609 57.34472656 -9.92724609 57.34472656 C-11.14424565 60.22127097 -10.92796608 61.34269365 -9.86474609 64.34472656 C-7.62167817 67.81786399 -5.54362121 69.38585671 -1.92724609 71.34472656 C-0.93724609 71.34472656 0.05275391 71.34472656 1.07275391 71.34472656 C1.07275391 72.99472656 1.07275391 74.64472656 1.07275391 76.34472656 C2.39275391 76.34472656 3.71275391 76.34472656 5.07275391 76.34472656 C5.40275391 74.69472656 5.73275391 73.04472656 6.07275391 71.34472656 C6.95962891 71.13847656 7.84650391 70.93222656 8.76025391 70.71972656 C12.96144119 68.9758375 14.62510737 67.16017557 17.07275391 63.34472656 C17.78165524 58.9337849 17.40886501 56.95899859 15.26025391 53.03222656 C13.17394782 50.19903234 13.17394782 50.19903234 10.07275391 48.34472656 C8.75275391 48.34472656 7.43275391 48.34472656 6.07275391 48.34472656 C6.07275391 43.39472656 6.07275391 38.44472656 6.07275391 33.34472656 C11.09828895 36.36004759 11.93164385 37.27367643 14.07275391 42.34472656 C15.06275391 42.01472656 16.05275391 41.68472656 17.07275391 41.34472656 C16.93449065 36.74996638 16.93449065 36.74996638 14.81103516 32.80175781 C12.11988198 30.49021314 9.6380621 28.75610828 6.07275391 28.34472656 C5.74275391 26.69472656 5.41275391 25.04472656 5.07275391 23.34472656 C4.08275391 23.01472656 3.09275391 22.68472656 2.07275391 22.34472656 Z " fill="#000000" transform="translate(129.92724609375,80.6552734375)"/>
<path d="M0 0 C0.53625 1.11375 1.0725 2.2275 1.625 3.375 C3.24253967 6.17152105 3.97665872 6.98629968 6.875 8.6875 C11.11577888 9.11157789 12.59159852 7.41428438 16 5 C20.14547117 4.30908814 21.54419814 4.6930314 25.0625 7.0625 C27.78302044 9.18637088 27.78302044 9.18637088 30.625 9.25 C34.48012008 7.22098943 35.31323453 3.93578609 37 0 C41.29 0.66 45.58 1.32 50 2 C49.13153167 6.34234163 48.02180771 9.59183275 46.27734375 13.61328125 C46.01240616 14.22769577 45.74746857 14.84211029 45.47450256 15.47514343 C44.63337662 17.42293164 43.78555741 19.36772118 42.9375 21.3125 C42.36348661 22.63847903 41.7899142 23.96464905 41.21679688 25.29101562 C39.81629428 28.52956966 38.40977678 31.76547053 37 35 C38.66869141 35.42345703 38.66869141 35.42345703 40.37109375 35.85546875 C44 37 44 37 46.0625 39.3125 C47 42 47 42 46.3125 44.75 C45 47 45 47 43 48 C41.41281435 48.10521868 39.82133387 48.14871703 38.23071289 48.16113281 C37.23950943 48.17074036 36.24830597 48.1803479 35.22706604 48.19024658 C33.61613319 48.1966214 33.61613319 48.1966214 31.97265625 48.203125 C30.87279892 48.20882507 29.77294159 48.21452515 28.63975525 48.22039795 C26.31038376 48.22985556 23.98099884 48.23638494 21.65161133 48.24023438 C18.08065602 48.2499506 14.51027351 48.28097175 10.93945312 48.3125 C8.67969093 48.31902876 6.41992461 48.32427973 4.16015625 48.328125 C3.08822525 48.3404718 2.01629425 48.3528186 0.91188049 48.36553955 C-0.08247513 48.36253845 -1.07683075 48.35953735 -2.10131836 48.35644531 C-3.41464394 48.36191376 -3.41464394 48.36191376 -4.75450134 48.36749268 C-7 48 -7 48 -8.8139801 46.70037842 C-10 45 -10 45 -9.875 41.4375 C-9 38 -9 38 -6 36 C-2.8125 35.875 -2.8125 35.875 0 36 C-0.39380859 35.07662842 -0.78761719 34.15325684 -1.19335938 33.2019043 C-2.65239577 29.77694564 -4.10435909 26.34902653 -5.55419922 22.92016602 C-6.18280449 21.43627463 -6.81332755 19.95319415 -7.44580078 18.47094727 C-8.35433737 16.34080692 -9.25594736 14.2078499 -10.15625 12.07421875 C-10.44060913 11.41161545 -10.72496826 10.74901215 -11.01794434 10.06632996 C-12.21997859 7.20098708 -13 5.14206299 -13 2 C-11.39658445 1.66307215 -9.79223445 1.33058907 -8.1875 1 C-7.29417969 0.814375 -6.40085937 0.62875 -5.48046875 0.4375 C-3 0 -3 0 0 0 Z " fill="#000000" transform="translate(115,30)"/>
<path d="M0 0 C4.74421225 3.55815919 8.2100846 7.56343095 11.84375 12.23828125 C14.8182412 16.04800096 17.92279817 19.7464325 21.01953125 23.45703125 C23 26 23 26 26 31 C21.38 31 16.76 31 12 31 C12 39.25 12 47.5 12 56 C4.41 56 -3.18 56 -11 56 C-11 47.75 -11 39.5 -11 31 C-15.62 31 -20.24 31 -25 31 C-22.53914515 26.89857525 -19.9787031 23.45188444 -16.875 19.875 C-15.89373624 18.73115028 -14.91328112 17.58660642 -13.93359375 16.44140625 C-13.44358887 15.86922363 -12.95358398 15.29704102 -12.44873047 14.70751953 C-9.50113014 11.2333846 -6.64422618 7.68536434 -3.77734375 4.14453125 C-2 2 -2 2 0 0 Z " fill="#000000" transform="translate(44,22)"/>
<path d="M0 0 C2.38116474 0.57051866 4.71185021 1.19714341 7.0625 1.875 C14.92688942 4.04858649 14.92688942 4.04858649 23 5 C24.0725 5.0515625 25.145 5.103125 26.25 5.15625 C38.29685028 5.45742126 49.45475737 3.4219147 61 0 C61 4.62 61 9.24 61 14 C41.69476845 20.10675692 19.62914715 22.76562427 0.57421875 13.8671875 C0.05472656 13.58101562 -0.46476563 13.29484375 -1 13 C-1.02686553 11.02090602 -1.04633375 9.04171029 -1.0625 7.0625 C-1.07410156 5.96035156 -1.08570313 4.85820312 -1.09765625 3.72265625 C-1 1 -1 1 0 0 Z " fill="#000000" transform="translate(14,138)"/>
<path d="M0 0 C2.38116474 0.57051866 4.71185021 1.19714341 7.0625 1.875 C14.92688942 4.04858649 14.92688942 4.04858649 23 5 C24.0725 5.0515625 25.145 5.103125 26.25 5.15625 C38.29685028 5.45742126 49.45475737 3.4219147 61 0 C61 4.62 61 9.24 61 14 C41.69476845 20.10675692 19.62914715 22.76562427 0.57421875 13.8671875 C0.05472656 13.58101562 -0.46476563 13.29484375 -1 13 C-1.02686553 11.02090602 -1.04633375 9.04171029 -1.0625 7.0625 C-1.07410156 5.96035156 -1.08570313 4.85820313 -1.09765625 3.72265625 C-1 1 -1 1 0 0 Z " fill="#000000" transform="translate(14,120)"/>
<path d="M0 0 C4.50520281 0.58222822 8.79216846 1.43227189 13.1875 2.5625 C27.63410369 5.68235165 41.75371187 4.39448594 56 1 C57.98 0.67 59.96 0.34 62 0 C62 4.29 62 8.58 62 13 C41.97071261 19.33579499 19.48696535 21.74348268 0 12 C0 8.04 0 4.08 0 0 Z " fill="#000000" transform="translate(13,157)"/>
<path d="M0 0 C0.90621094 0.20496094 1.81242188 0.40992187 2.74609375 0.62109375 C22.65874574 5.02505594 42.17730329 5.55035508 62 0 C62 4.29 62 8.58 62 13 C59.81426438 13.65177969 57.6263177 14.29614674 55.4375 14.9375 C54.21933594 15.29714844 53.00117187 15.65679687 51.74609375 16.02734375 C34.70079001 20.45307955 16.16241661 18.78821498 0 12 C0 8.04 0 4.08 0 0 Z " fill="#000000" transform="translate(13,103)"/>
<path d="M0 0 C0.70125 0.06993164 1.4025 0.13986328 2.125 0.21191406 C7.23192832 0.81541642 11.55344447 2.23794302 16.3125 4.1875 C15.9825 5.1775 15.6525 6.1675 15.3125 7.1875 C13.23828125 8.1015625 13.23828125 8.1015625 10.625 8.8125 C9.77550781 9.05226563 8.92601562 9.29203125 8.05078125 9.5390625 C-7.12322761 13.13233707 -26.85538556 13.43652751 -41.6875 8.1875 C-42.6775 7.5275 -43.6675 6.8675 -44.6875 6.1875 C-44.6875 5.5275 -44.6875 4.8675 -44.6875 4.1875 C-39.19473163 1.93737603 -34.26916882 0.58779165 -28.375 0 C-27.25544922 -0.11843262 -27.25544922 -0.11843262 -26.11328125 -0.23925781 C-17.27349292 -1.12247196 -8.82455238 -0.93351267 0 0 Z " fill="#000000" transform="translate(58.6875,91.8125)"/>
<path d="M0 0 C0 4.62 0 9.24 0 14 C-5 12 -5 12 -7 10 C-7.48408063 6.28871513 -7.48899662 4.64075419 -5.1875 1.625 C-3 0 -3 0 0 0 Z " fill="#000000" transform="translate(131,114)"/>
<path d="M0 0 C5 2 5 2 6.375 3.8125 C7.17851927 6.62481745 6.92185671 8.23442987 6 11 C4.625 12.8125 4.625 12.8125 3 14 C2.01 14 1.02 14 0 14 C0 9.38 0 4.76 0 0 Z " fill="#000000" transform="translate(136,133)"/>
</svg>
